PathFileType	4	(X/Y/Z)	intermediate\S1_nor_med_left\tmpk2z6hi7d.trc
DataRate	CameraRate	NumFrames	NumMarkers	Units	OrigDataRate	OrigDataStartFrame	OrigNumFrames
250.0	250.0	11	18	mm	250.0	2879	7677
Frame#	Time	c7			r_should			l_should			clavicle			r_upa			r_elb_l			r_elb_m			r_low			r_wri_l			r_wri_m			r_met			l_upa			l_elb_l			l_elb_m			l_low			l_wri_l			l_wri_m			l_met			
		X	Y	Z	X	Y	Z	X	Y	Z	X	Y	Z	X	Y	Z	X	Y	Z	X	Y	Z	X	Y	Z	X	Y	Z	X	Y	Z	X	Y	Z	X	Y	Z	X	Y	Z	X	Y	Z	X	Y	Z	X	Y	Z	X	Y	Z	X	Y	Z	
2879	11.512000	905.164612	1418.312988	76.350418	984.100464	1354.519653	258.505463	949.511169	1341.213745	-115.493782	1039.950928	1296.359497	66.295166	987.832397	1141.754272	306.527802	1011.360413	1040.084106	312.361481	933.951111	1022.697449	243.281998	965.270691	910.848267	327.759766	1043.761230	820.209290	297.610046	975.866089	804.845520	316.942566	1079.533936	744.688965	314.516541	988.360168	1128.744141	-138.595016	998.927917	1083.968018	-143.909500	1013.329834	1040.205566	-37.493153	1094.733765	1137.414673	-95.980095	1081.291016	1240.197388	-116.827003	1124.074463	1226.755615	-59.149700	1115.015015	1308.329590	-130.697327	
2880	11.516000	905.043030	1418.297852	76.401794	984.061646	1354.537476	258.513458	949.317627	1341.217163	-115.463692	1039.909424	1296.310425	66.310089	987.864014	1141.772705	306.543549	1011.404968	1040.123901	312.371796	933.945679	1022.708801	243.340515	965.338257	910.867859	327.821686	1043.818726	820.239441	297.641205	975.932922	804.865845	317.006714	1079.702393	744.836792	314.839630	988.157104	1128.729614	-138.520874	998.710022	1083.943726	-143.874207	1012.285706	1039.848511	-37.760406	1094.692017	1137.195801	-96.068321	1081.406738	1240.018555	-116.773605	1124.302490	1226.461914	-59.304852	1115.332642	1308.055664	-130.841614	
2881	11.520000	904.916138	1418.292725	76.443649	984.019714	1354.555908	258.536804	949.119690	1341.225342	-115.441711	1039.857910	1296.263794	66.322563	987.901672	1141.796631	306.563019	1011.449219	1040.152832	312.378784	933.935974	1022.718811	243.420135	965.408386	910.883911	327.884674	1043.874023	820.274109	297.669983	976.002075	804.882324	317.071899	1079.803711	744.914490	314.951538	987.949158	1128.717651	-138.438934	998.493896	1083.915527	-143.825500	1011.877319	1039.747437	-37.832851	1094.664062	1136.963013	-96.152138	1081.645630	1239.812866	-116.927551	1124.564453	1226.133545	-59.481720	1115.683960	1307.785522	-130.987106	
2882	11.524000	904.793396	1418.298462	76.496246	983.983459	1354.578979	258.554321	948.930969	1341.232178	-115.413452	1039.809937	1296.221313	66.340927	987.941711	1141.817383	306.582764	1011.482239	1040.170776	312.393738	933.927917	1022.726074	243.487808	965.478943	910.899109	327.944946	1043.928833	820.302856	297.697723	976.071716	804.895142	317.132904	1079.883545	744.972961	315.019653	987.735413	1128.698364	-138.350327	998.266724	1083.889282	-143.777390	1011.613586	1039.700562	-37.843193	1094.651001	1136.712769	-96.237968	1081.759888	1239.648315	-116.804565	1124.855469	1225.793579	-59.640934	1116.081299	1307.500244	-131.134933	
2883	11.528000	904.660461	1418.300903	76.549721	983.957214	1354.584839	258.572906	948.742859	1341.234619	-115.372490	1039.767334	1296.187500	66.359848	987.973999	1141.838013	306.590881	1011.527893	1040.203125	312.393066	933.914978	1022.734619	243.563568	965.543030	910.915405	327.997040	1043.987793	820.327881	297.723602	976.141663	804.909851	317.190948	1079.961182	745.016296	315.071747	987.523438	1128.672852	-138.264740	998.035645	1083.854248	-143.718124	1011.363159	1039.675659	-37.844917	1094.640381	1136.450439	-96.329140	1081.969971	1239.469849	-116.833588	1125.178955	1225.439453	-59.784161	1116.526733	1307.168579	-131.280273	
2884	11.532000	904.528931	1418.296875	76.602280	983.927856	1354.592896	258.591949	948.564636	1341.234863	-115.334297	1039.709106	1296.161011	66.378899	988.009094	1141.848877	306.601227	1011.563416	1040.224365	312.400452	933.888611	1022.749329	243.640152	965.604431	910.933838	328.049683	1044.043579	820.353638	297.752533	976.205139	804.929871	317.249939	1080.045288	745.058044	315.107635	987.309448	1128.641968	-138.173340	997.809387	1083.821777	-143.658508	1011.123535	1039.646118	-37.853352	1094.640137	1136.168335	-96.419487	1082.234863	1239.272461	-116.913406	1125.518311	1225.062012	-59.935173	1117.006226	1306.793701	-131.428452	
2885	11.536000	904.394531	1418.302612	76.655640	983.888489	1354.602295	258.620880	948.392273	1341.234497	-115.292625	1039.629883	1296.142334	66.395920	988.035522	1141.858154	306.613525	1011.589294	1040.239746	312.410400	933.862061	1022.767090	243.710709	965.658875	910.952515	328.104736	1044.098022	820.378296	297.782959	976.263611	804.947754	317.302338	1080.127441	745.103210	315.140076	987.105164	1128.605591	-138.079895	997.588440	1083.788574	-143.600769	1010.946533	1039.613770	-37.843616	1094.650635	1135.872437	-96.511497	1082.538086	1239.031128	-117.010925	1125.865234	1224.670410	-60.096222	1117.537598	1306.402710	-131.595917	
2886	11.540000	904.265930	1418.311279	76.728767	983.839417	1354.615234	258.652100	948.218506	1341.235352	-115.247940	1039.529419	1296.135498	66.408951	988.057129	1141.865479	306.625702	1011.616699	1040.260986	312.423431	933.835327	1022.775513	243.776596	965.707336	910.974182	328.160248	1044.150391	820.407898	297.802460	976.321594	804.965515	317.357056	1080.201538	745.145752	315.174286	986.907776	1128.572144	-137.980484	997.367615	1083.746216	-143.526352	1011.107910	1039.705078	-37.727688	1094.669312	1135.575928	-96.608772	1082.867676	1238.741455	-117.105843	1126.218140	1224.262085	-60.253563	1118.104980	1306.030029	-131.755981	
2887	11.544000	904.136536	1418.314453	76.786911	983.788757	1354.632568	258.679871	948.050842	1341.236084	-115.208420	1039.422485	1296.131226	66.433655	988.072693	1141.872192	306.643829	1011.634583	1040.289673	312.436005	933.795105	1022.791382	243.848663	965.755249	910.990112	328.217377	1044.198486	820.433594	297.822235	976.375549	804.982971	317.406708	1080.268677	745.186951	315.203705	986.706177	1128.543579	-137.879761	997.144287	1083.701782	-143.451675	1011.665344	1039.987793	-37.461826	1094.684448	1135.260864	-96.709534	1083.213379	1238.453857	-117.197754	1126.600342	1223.834839	-60.401798	1118.705078	1305.660767	-131.907043	
2888	11.548000	904.004822	1418.311401	76.846291	983.727112	1354.650635	258.710876	947.889160	1341.242310	-115.171432	1039.306885	1296.133179	66.449951	988.076538	1141.886597	306.667328	1011.642456	1040.312866	312.450287	933.771790	1022.798889	243.906738	965.795471	911.002625	328.274261	1044.238525	820.460388	297.845612	976.427734	804.997803	317.455353	1080.337036	745.230591	315.230621	986.494446	1128.515747	-137.784363	996.903748	1083.661377	-143.379364	1011.608154	1040.038574	-37.405018	1094.701050	1134.926025	-96.808067	1083.541992	1238.195679	-117.291824	1126.992676	1223.376465	-60.570385	1119.328979	1305.229614	-132.062241	
2889	11.552000	903.880859	1418.307495	76.916664	983.666992	1354.666504	258.744049	947.736206	1341.236572	-115.130531	1039.187134	1296.144897	66.481537	988.067383	1141.906006	306.704010	1011.638184	1040.335205	312.476868	933.737793	1022.805664	243.962631	965.830566	911.014404	328.326874	1044.275391	820.489685	297.871521	976.475586	805.014282	317.502991	1080.395508	745.273254	315.255737	986.270569	1128.492065	-137.695404	996.658813	1083.622681	-143.316025	1011.411194	1040.027954	-37.409603	1094.723022	1134.583496	-96.900970	1083.888550	1237.888794	-117.359398	1127.393066	1222.908081	-60.738091	1119.992188	1304.741943	-132.219635	
